<?xml version="1.0" encoding="UTF-8"?>
<svg version="1.1" xmlns="http://www.w3.org/2000/svg" width="512" height="512">
<path d="M0 0 C1.15174739 -0.00367669 2.30349477 -0.00735338 3.4901436 -0.01114148 C7.34103394 -0.02213494 11.19189725 -0.02601484 15.0428009 -0.02983093 C17.80790434 -0.03557128 20.57300378 -0.04273398 23.33810425 -0.04974365 C31.63008393 -0.06945135 39.92206472 -0.07956812 48.21406195 -0.08847144 C52.12888747 -0.09286465 56.04371167 -0.09822885 59.95853615 -0.10346031 C72.99020068 -0.12046871 86.0218644 -0.13495902 99.05353832 -0.14220905 C102.43081857 -0.14411863 105.80809881 -0.14603901 109.18537903 -0.147995 C110.44433212 -0.14872061 110.44433212 -0.14872061 111.72871862 -0.14946087 C125.30023761 -0.15774683 138.87166806 -0.18306116 152.44314846 -0.21557567 C166.40932813 -0.24876008 180.37546299 -0.26666814 194.34168226 -0.26985329 C202.16987276 -0.27200816 209.99793423 -0.2806051 217.82608604 -0.30631447 C224.49821177 -0.32817785 231.17017711 -0.33599611 237.84233459 -0.32634769 C241.23751267 -0.32184725 244.63209652 -0.32568383 248.02727127 -0.34310913 C269.56881063 -0.44739352 289.55865742 1.30533044 309.39753723 10.14717102 C310.39261292 10.5880304 310.39261292 10.5880304 311.40779114 11.03779602 C341.97860875 24.84916325 366.1632243 50.0453068 378.35676575 81.37519836 C383.81209316 96.02648293 386.5474057 110.13223499 386.54470825 125.74963379 C386.54838494 126.90138118 386.55206163 128.05312856 386.55584973 129.23977739 C386.56684319 133.09066773 386.57072309 136.94153104 386.57453918 140.79243469 C386.58027953 143.55753813 386.58744223 146.32263757 386.5944519 149.08773804 C386.61415961 157.37971772 386.62427637 165.67169851 386.63317969 173.96369573 C386.63757291 177.87852126 386.64293711 181.79334546 386.64816856 185.70816994 C386.66517696 198.73983447 386.67966727 211.77149819 386.6869173 224.80317211 C386.68882688 228.18045236 386.69074726 231.5577326 386.69270325 234.93501282 C386.69318699 235.77431488 386.69367073 236.61361695 386.69416913 237.47835241 C386.70245508 251.0498714 386.72776941 264.62130185 386.76028392 278.19278225 C386.79346833 292.15896192 386.81137639 306.12509678 386.81456155 320.09131604 C386.81671641 327.91950655 386.82531335 335.74756802 386.85102272 343.57571983 C386.8728861 350.24784556 386.88070436 356.9198109 386.87105594 363.59196838 C386.8665555 366.98714646 386.87039208 370.3817303 386.88781738 373.77690506 C386.99210177 395.31844442 385.23937781 415.30829121 376.39753723 435.14717102 C376.10363098 435.81055481 375.80972473 436.4739386 375.50691223 437.15742493 C361.695545 467.72824254 336.49940145 491.91285809 305.16950989 504.10639954 C290.51822532 509.56172695 276.41247326 512.29703949 260.79507446 512.29434204 C259.64332708 512.29801873 258.49157969 512.30169542 257.30493087 512.30548352 C253.45404053 512.31647698 249.60317721 512.32035688 245.75227356 512.32417297 C242.98717013 512.32991332 240.22207068 512.33707602 237.45697021 512.34408569 C229.16499054 512.36379339 220.87300974 512.37391016 212.58101252 512.38281348 C208.66618699 512.38720669 204.75136279 512.39257089 200.83653831 512.39780235 C187.80487378 512.41481075 174.77321006 512.42930106 161.74153614 512.43655109 C158.36425589 512.43846067 154.98697565 512.44038105 151.60969543 512.44233704 C150.77039337 512.44282078 149.93109131 512.44330452 149.06635585 512.44380292 C135.49483685 512.45208887 121.92340641 512.4774032 108.35192601 512.50991771 C94.38574633 512.54310212 80.41961148 512.56101018 66.45339221 512.56419533 C58.6252017 512.5663502 50.79714023 512.57494714 42.96898842 512.60065651 C36.2968627 512.62251989 29.62489736 512.63033815 22.95273987 512.62068973 C19.5575618 512.61618929 16.16297795 512.62002587 12.76780319 512.63745117 C-8.77373617 512.74173556 -28.76358296 510.9890116 -48.60246277 502.14717102 C-49.26584656 501.85326477 -49.92923035 501.55935852 -50.61271667 501.25654602 C-81.18353429 487.44517879 -105.36814984 462.24903524 -117.56169128 430.91914368 C-123.0170187 416.26785911 -125.75233124 402.16210705 -125.74963379 386.54470825 C-125.75331048 385.39296086 -125.75698717 384.24121348 -125.76077527 383.05456465 C-125.77176873 379.20367431 -125.77564863 375.352811 -125.77946472 371.50190735 C-125.78520507 368.73680392 -125.79236776 365.97170447 -125.79937744 363.206604 C-125.81908514 354.91462433 -125.8292019 346.62264353 -125.83810523 338.33064631 C-125.84249844 334.41582078 -125.84786264 330.50099658 -125.8530941 326.5861721 C-125.8701025 313.55450757 -125.88459281 300.52284385 -125.89184284 287.49116993 C-125.89375242 284.11388968 -125.8956728 280.73660944 -125.89762878 277.35932922 C-125.89835439 276.10037613 -125.89835439 276.10037613 -125.89909466 274.81598964 C-125.90738061 261.24447064 -125.93269494 247.6730402 -125.96520946 234.1015598 C-125.99839387 220.13538012 -126.01630193 206.16924526 -126.01948708 192.203026 C-126.02164194 184.37483549 -126.03023889 176.54677402 -126.05594826 168.71862221 C-126.07781163 162.04649648 -126.0856299 155.37453115 -126.07598148 148.70237366 C-126.07148104 145.30719559 -126.07531762 141.91261174 -126.09274292 138.51743698 C-126.19702731 116.97589762 -124.44430335 96.98605083 -115.60246277 77.14717102 C-115.30855652 76.48378723 -115.01465027 75.82040344 -114.71183777 75.13691711 C-100.90047054 44.5660995 -75.70432698 20.38148395 -44.37443542 8.1879425 C-29.72315086 2.73261509 -15.6173988 -0.00269745 0 0 Z " fill="#00A898" transform="translate(125.60246276855469,-0.1471710205078125)"/>
<path d="M0 0 C18.28554748 8.08012679 36.16749235 10.41353025 55.25 3.32421875 C59.94361516 1.35635494 64.55349236 -0.78524659 69.15771484 -2.95263672 C92.02059092 -13.69119982 115.38652778 -17.83433821 139.81542969 -9.56640625 C146.94638879 -6.95772807 153.8644789 -3.83818648 160.79882812 -0.75390625 C164.39933513 0.82974305 168.0240728 2.3301445 171.6875 3.76171875 C172.82058594 4.21417969 173.95367187 4.66664063 175.12109375 5.1328125 C181.01645879 6.83393486 187.17577879 7.45647286 193.25 8.32421875 C193.25 18.88421875 193.25 29.44421875 193.25 40.32421875 C174.43156053 40.32421875 158.12428017 34.68131165 141.3125 26.63671875 C126.02206243 19.39535672 111.14047038 16.11046474 94.5625 21.32421875 C88.48432056 23.64127852 82.6564839 26.45005939 76.81152344 29.29736328 C71.5882956 31.80446514 66.30800779 33.86738282 60.8125 35.69921875 C59.74938599 36.05681274 59.74938599 36.05681274 58.66479492 36.42163086 C31.191934 45.27239897 4.68764828 38.82661798 -20.625 26.63671875 C-30.50524498 21.93227422 -39.32979196 18.99670498 -50.3125 18.82421875 C-51.44510254 18.79630249 -51.44510254 18.79630249 -52.60058594 18.76782227 C-63.80892577 18.89153197 -73.94957142 24.16991075 -83.9375 28.76171875 C-99.5991532 35.81670696 -113.35642165 40.32421875 -130.75 40.32421875 C-130.75 29.76421875 -130.75 19.20421875 -130.75 8.32421875 C-128.213125 7.93234375 -125.67625 7.54046875 -123.0625 7.13671875 C-114.26009663 5.63631859 -106.5529302 2.86978193 -98.37353516 -0.71826172 C-95.68802855 -1.89509069 -93.00096419 -3.0682243 -90.3125 -4.23828125 C-89.40991455 -4.63160645 -88.5073291 -5.02493164 -87.57739258 -5.43017578 C-80.42540241 -8.49781386 -73.32380158 -10.8449918 -65.75 -12.67578125 C-65.12754395 -12.84867676 -64.50508789 -13.02157227 -63.86376953 -13.19970703 C-41.67534348 -18.19710029 -19.7880567 -8.84291857 0 0 Z " fill="#FDFEFE" transform="translate(224.75,350.67578125)"/>
<path d="M0 0 C19.54428994 -0.49219618 36.94769747 4.89786428 54.47265625 13.28125 C72.2801083 21.67715895 88.76620299 23.87247305 107.78515625 17.15625 C112.18705305 15.41172349 116.51701945 13.50894407 120.84594727 11.59179688 C146.42491518 0.30318516 171.82173412 -4.10199147 198.7578125 5.51171875 C202.4769032 6.97041573 206.13938855 8.52562159 209.78515625 10.15625 C211.17415813 10.76895747 212.5634909 11.38091527 213.953125 11.9921875 C214.64986328 12.29898438 215.34660156 12.60578125 216.06445312 12.921875 C226.9375074 17.70480288 235.70521982 20.29779824 247.78515625 22.15625 C247.78515625 32.71625 247.78515625 43.27625 247.78515625 54.15625 C230.69799824 54.15625 215.27051536 48.77932188 199.91015625 41.65625 C182.46532325 33.61258522 166.98472544 28.97472301 148.04003906 35.31201172 C142.53334038 37.37374451 137.2377212 39.94775983 131.9140625 42.43530273 C105.13431251 54.90149859 80.19770241 57.52381578 51.875 47.74609375 C46.14813247 45.59763092 40.62883929 42.96451616 35.07885742 40.40185547 C19.1594816 33.12398727 3.80143062 29.36879397 -13.21484375 35.15625 C-18.55188136 37.31929526 -23.77019025 39.75776832 -29.00585938 42.15283203 C-37.4380934 45.98312401 -45.83676108 49.2791678 -54.83984375 51.46875 C-55.80579468 51.70803223 -55.80579468 51.70803223 -56.79125977 51.95214844 C-63.33548966 53.42722551 -69.32960735 53.62661643 -76.21484375 54.15625 C-76.21484375 43.59625 -76.21484375 33.03625 -76.21484375 22.15625 C-73.32734375 21.599375 -70.43984375 21.0425 -67.46484375 20.46875 C-59.55913999 18.84814761 -52.54663983 16.55870348 -45.21484375 13.15625 C-30.55348544 6.61858154 -16.20929719 0.78781517 0 0 Z " fill="#FDFEFE" transform="translate(170.21484375,192.84375)"/>
<path d="M0 0 C16.01616554 7.38565447 32.90957926 9.6151167 49.85620117 3.74731445 C56.03497891 1.38767844 62.06743948 -1.34527381 68.1178894 -4.01370239 C93.81862329 -15.32971939 118.91453359 -17.4082297 145.45141602 -7.44604492 C152.04157893 -4.88357464 158.44197966 -1.89002961 164.87524414 1.03759766 C173.58755564 4.92946392 181.85415872 6.61992292 191.32641602 7.80395508 C191.32641602 18.36395508 191.32641602 28.92395508 191.32641602 39.80395508 C172.63000378 39.14213518 158.23502047 34.08604404 141.26782227 26.44067383 C126.77919988 19.94215094 112.89806772 15.16698368 97.13891602 19.67895508 C96.3791748 19.89165039 95.61943359 20.1043457 94.83666992 20.32348633 C87.35999324 22.55578035 80.42640027 25.81542605 73.38061523 29.1315918 C49.2011425 40.42838432 23.83873658 43.43710976 -1.64794922 34.49487305 C-8.8738707 31.850831 -15.87622577 28.83681056 -22.86108398 25.61645508 C-39.69807475 17.91151603 -54.15849902 15.50589007 -71.78686523 21.88989258 C-77.76047094 24.16268264 -83.53520912 26.85399062 -89.33129883 29.5402832 C-103.32383459 35.95091227 -117.21015145 39.80395508 -132.67358398 39.80395508 C-132.67358398 29.24395508 -132.67358398 18.68395508 -132.67358398 7.80395508 C-129.74483398 7.30895508 -126.81608398 6.81395508 -123.79858398 6.30395508 C-114.91690802 4.63786815 -107.3085423 1.74451045 -99.17749023 -2.10229492 C-64.58144889 -18.46477561 -33.99397868 -15.77323666 0 0 Z " fill="#FDFEFE" transform="translate(226.673583984375,279.196044921875)"/>
<path d="M0 0 C10.4132288 4.70588491 19.44060916 8.07250617 30.97827148 8.31347656 C31.68532227 8.33603516 32.39237305 8.35859375 33.12084961 8.38183594 C44.57717334 8.33009102 55.15753932 3.16447167 65.35327148 -1.56152344 C92.74218968 -13.95096666 118.31297782 -17.15501558 146.97827148 -6.73730469 C152.32585362 -4.66964846 157.55502577 -2.37420786 162.78686523 -0.03417969 C163.9875061 0.50275513 163.9875061 0.50275513 165.21240234 1.05053711 C166.76168521 1.74742172 168.30827254 2.45034289 169.8515625 3.16040039 C177.74423893 6.74911705 184.25165865 7.99081528 193.10327148 8.87597656 C193.10327148 19.43597656 193.10327148 29.99597656 193.10327148 40.87597656 C175.4880058 39.6177433 161.00932611 35.26222723 145.09545898 28.07519531 C126.39631206 19.63478028 110.40951998 15.80956415 90.51342773 22.93359375 C84.99209824 25.09246043 79.65238609 27.67382722 74.29272461 30.20141602 C53.28807087 39.97963509 27.97231393 44.39477136 5.46264648 37.13769531 C4.35405273 36.72132813 3.24545898 36.30496094 2.10327148 35.87597656 C0.89155273 35.42867187 -0.32016602 34.98136719 -1.56860352 34.52050781 C-6.73635695 32.54800078 -11.8099417 30.38790327 -16.83422852 28.07519531 C-33.80926448 20.29583579 -49.51053055 15.95418813 -67.89672852 21.87597656 C-71.96332412 23.39662988 -75.92442375 25.12546938 -79.89672852 26.87597656 C-96.32477124 34.07557652 -112.64585879 40.87597656 -130.89672852 40.87597656 C-130.89672852 30.31597656 -130.89672852 19.75597656 -130.89672852 8.87597656 C-126.93672852 8.21597656 -122.97672852 7.55597656 -118.89672852 6.87597656 C-116.04691835 6.05190433 -113.34932535 5.21573703 -110.58422852 4.18847656 C-109.8676709 3.9301001 -109.15111328 3.67172363 -108.4128418 3.40551758 C-102.9305832 1.37972817 -97.68893753 -1.03323999 -92.43188477 -3.57666016 C-60.55545037 -18.77731092 -31.04620464 -14.09986856 0 0 Z " fill="#FCFEFE" transform="translate(224.896728515625,134.1240234375)"/>
<path d="M0 0 C3.5677811 2.35149209 5.84221079 4.99692157 7.75 8.8125 C8.94225665 20.19003487 8.94225665 20.19003487 5.5625 24.375 C0.46115807 28.79616301 -2.45643875 30.15298248 -9.1640625 30.015625 C-11.25 29.8125 -11.25 29.8125 -14.25 28.8125 C-14.25 28.1525 -14.25 27.4925 -14.25 26.8125 C-14.8275 26.791875 -15.405 26.77125 -16 26.75 C-18.92179043 25.53258732 -20.05040793 23.74207043 -21.484375 20.9765625 C-23.39267638 15.58269024 -23.06746518 10.57822478 -20.6875 5.4375 C-14.69772681 -1.01302498 -8.56138281 -3.12819756 0 0 Z " fill="#00D3BD" transform="translate(182.25,156.1875)"/>
<path d="M0 0 C3.82516125 2.04870736 6.2090293 4.69317885 8.4375 8.375 C9.45797044 13.1371954 9.79510964 17.25075879 7.75 21.75 C4.41607194 26.03647893 2.12134074 28.60734726 -3.453125 29.30859375 C-8.48488321 29.54050439 -12.0539698 29.60371427 -16.0625 26.3125 C-19.85419678 22.42102173 -20.85832253 19.48761339 -21.375 14.0625 C-21.24485602 9.74334682 -19.84834139 7.2980795 -17 4 C-11.95944495 -0.67173395 -6.58194509 -1.26869376 0 0 Z " fill="#00D4BD" transform="translate(360,49)"/>
<path d="M0 0 C3.32896466 2.56759561 5.30261698 4.90573347 6.23046875 8.98828125 C6.79878513 13.77457075 6.73035272 17.0242193 4.48046875 21.36328125 C0.51623899 25.98821597 -2.42214121 27.79587223 -8.58203125 28.30078125 C-12.98550703 28.2280633 -15.40044698 26.89794494 -18.76953125 23.98828125 C-22.14581627 20.34544741 -23.10212915 17.40199789 -23.39453125 12.55078125 C-23.19894274 7.60036856 -22.08265165 4.75747611 -18.5390625 1.296875 C-13.20365432 -2.6487359 -5.80947142 -3.32153002 0 0 Z " fill="#00D4BD" transform="translate(319.76953125,45.01171875)"/>
<path d="M0 0 C4.26748391 3.5088201 7.5638253 6.82575302 8.125 12.4375 C7.74258648 17.17942765 6.7279559 20.52895891 3.8125 24.3125 C0.12131769 27.30137771 -3.55708025 28.66778998 -8.3125 28.3125 C-13.25269195 27.34193184 -16.69248516 24.95701632 -20.0625 21.25 C-21.84704654 16.59035071 -22.05830008 12.22128431 -21.1875 7.3125 C-19.13498715 3.46061755 -16.47890082 1.07409536 -12.75 -1.125 C-7.85836905 -2.19877265 -4.49964656 -2.38216583 0 0 Z " fill="#00D4BD" transform="translate(490.1875,296.6875)"/>
<path d="M0 0 C4.88789183 2.44394592 7.17813557 4.83805078 9 10 C9.56207435 15.24602726 8.88437792 18.5772872 6 23 C3.2348942 26.10231382 1.67957476 27.68593318 -2.40234375 28.44921875 C-9.17009792 28.74435389 -12.71250048 26.83405131 -17.8125 22.4375 C-20.31113981 19.41283076 -20.33399413 15.91733003 -20.28515625 12.12890625 C-19.67814602 7.59711757 -17.30250092 4.18409174 -13.9375 1.125 C-9.22977253 -1.60851918 -5.14071766 -1.1248066 0 0 Z " fill="#00D4BD" transform="translate(439,347)"/>
<path d="M0 0 C4.67508051 1.67597226 7.4760723 3.69997503 10 8 C11.40406462 12.73758579 11.47617014 16.74686553 9.5 21.3125 C7.16319718 25.30021812 4.49187018 27.74051483 0 29 C-5.9794245 29.40626752 -10.41082883 27.93357529 -15 24 C-18.29982338 20.26020017 -18.67837026 16.41570829 -18.5625 11.578125 C-17.55853842 6.97663441 -14.47942407 4.01497606 -11 1 C-7.54155176 -0.72922412 -3.78834735 -0.35136443 0 0 Z " fill="#00D4BD" transform="translate(484,174)"/>
<path d="M0 0 C3.125 1.375 3.125 1.375 5 3 C5 3.66 5 4.32 5 5 C5.66 5 6.32 5 7 5 C9.63015677 9.56595216 9.66759857 13.84646468 9 19 C6.96064771 23.00587056 4.81454682 25.65104222 1 28 C-3.64190291 28.7758055 -8.74882894 29.1212894 -13.046875 26.98046875 C-16.18770729 24.40716309 -18.78306231 21.60685244 -19.3359375 17.51171875 C-19.41900451 11.50597368 -19.2721952 7.61858941 -15 3 C-10.62241338 -0.86257643 -5.55323151 -0.69187802 0 0 Z " fill="#00D4BD" transform="translate(190,49)"/>
<path d="M0 0 C3.94325881 2.02986319 6.41288306 4.12647355 7.9765625 8.265625 C8.67931863 12.93016883 8.49099162 16.91578539 6.2890625 21.140625 C3.28752273 25.19675982 0.83055191 26.90364459 -4.14453125 27.875 C-12.77246101 28.24084861 -12.77246101 28.24084861 -16.203125 25.56640625 C-19.50155402 21.04487557 -20.7946529 16.83945629 -20.33984375 11.265625 C-19.62602019 6.75355512 -18.47346722 4.37210225 -14.9609375 1.453125 C-10.18461842 -1.68474782 -5.34565671 -1.94012251 0 0 Z " fill="#00D4BD" transform="translate(72.0234375,464.734375)"/>
<path d="M0 0 C4.64425866 2.49413891 8.31375022 4.94125067 10 10 C10.39614654 15.24894167 9.86557317 18.55342094 7 23 C3.48159851 26.82884867 0.24295193 27.7549443 -4.7890625 28.09765625 C-8.17580085 27.94806533 -10.24047764 26.92524816 -13 25 C-16.87407316 20.70710812 -18.36663128 18.03402575 -18.28125 12.1640625 C-17.67476594 7.49750457 -15.32341832 4.17217052 -11.8125 1.0625 C-7.79971864 -0.45343962 -4.23423053 -0.68703564 0 0 Z " fill="#00D4BD" transform="translate(432,399)"/>
<path d="M0 0 C3.29191649 2.64944208 5.26421017 5.77294176 7.3125 9.4375 C7.84488281 10.36433594 8.37726563 11.29117188 8.92578125 12.24609375 C10.16805646 15.43083565 10.10495937 16.8019926 9 20 C4.03180212 26.84805654 4.03180212 26.84805654 0 28 C-5.62151717 28.45334816 -9.16100802 28.18933562 -14 25 C-17.40124883 21.32297423 -18.83832317 18.71377437 -19.3125 13.6875 C-18.8527302 8.26221633 -16.4114569 5.57751065 -12.875 1.625 C-8.76340783 -0.6989434 -4.61707888 -1.02101257 0 0 Z " fill="#00D4BD" transform="translate(490,57)"/>
<path d="M0 0 C3.75916716 2.05045481 5.62598016 3.43897024 8 7 C9.3378977 11.90562489 8.88400258 15.28999356 7 20 C2.9966345 24.74082757 0.27227469 26.78010245 -5.875 27.375 C-10.20585221 27.25402647 -12.69012935 25.84802823 -16 23 C-19.53408407 19.11250753 -19.67487515 14.79603579 -19.55859375 9.734375 C-18.62169605 5.14816247 -15.7789989 2.57327976 -12 0 C-7.81181417 -1.39606194 -4.27755535 -0.95624531 0 0 Z " fill="#00D4BD" transform="translate(299,396)"/>
<path d="M0 0 C3.63681195 2.12147363 5.45979848 4.12905105 7 8 C7.1953125 10.796875 7.1953125 10.796875 7.125 13.75 C7.10695313 14.73484375 7.08890625 15.7196875 7.0703125 16.734375 C7.04710938 17.48203125 7.02390625 18.2296875 7 19 C6.34 19 5.68 19 5 19 C4.95875 19.598125 4.9175 20.19625 4.875 20.8125 C4 23 4 23 1.4375 24.75 C-3.60745104 26.58452765 -7.74681139 27.00141716 -12.8125 24.75 C-17.28442507 21.17245995 -18.77365125 17.94013217 -19.4375 12.25 C-19.4044322 7.77757967 -17.55752835 5.54754307 -14.60546875 2.34765625 C-10.59540732 -1.01845371 -4.93686397 -0.57570458 0 0 Z " fill="#00D3BC" transform="translate(75,423)"/>
<path d="M0 0 C4.10303376 2.05151688 6.36204867 3.7323103 8 8 C8.1953125 10.796875 8.1953125 10.796875 8.125 13.75 C8.10695313 14.73484375 8.08890625 15.7196875 8.0703125 16.734375 C8.04710937 17.48203125 8.02390625 18.2296875 8 19 C7.34 19 6.68 19 6 19 C5.9071875 19.8971875 5.9071875 19.8971875 5.8125 20.8125 C5 23 5 23 3.0625 24.75 C-1.34208448 26.54778959 -5.31153541 26.81766822 -10 26 C-13.59705851 24.08009761 -15.74638748 21.38041879 -18 18 C-18.76387713 13.3367966 -18.43034926 9.82995928 -16.25 5.625 C-11.32161745 -0.12477965 -7.41959233 -1.06495726 0 0 Z " fill="#00D3BD" transform="translate(259,61)"/>
<path d="M0 0 C3.3737101 2.05056357 6.22043124 4.44086248 8 8 C8.42054103 12.56933999 8.56125534 16.68104995 6.75 20.9375 C4.22808267 23.90975971 2.32363501 25.7987917 -1.62109375 26.3984375 C-11.33923831 26.31756528 -11.33923831 26.31756528 -15 23 C-18.15085489 19.30589426 -18.52352299 15.91249167 -18.3515625 11.21484375 C-17.63443905 6.69696599 -15.18268822 4.01373276 -11.8125 1.125 C-7.77643403 -0.48942639 -4.27444209 -0.92637226 0 0 Z " fill="#00D3BD" transform="translate(130,101)"/>
<path d="M0 0 C3.82468048 1.98316766 7.09067421 4.07527477 9 8 C9.73575113 12.75059062 9.47865622 16.07687729 7.25 20.375 C4.51541492 23.56534926 2.60470839 25.71301787 -1.62109375 26.46875 C-9.26687355 26.55358528 -9.26687355 26.55358528 -13.0625 23.6875 C-16.84983803 18.43409563 -17.89871462 15.4115616 -17 9 C-12.98058528 1.2482716 -8.58253689 -1.35592163 0 0 Z " fill="#00D4BD" transform="translate(250,398)"/>
<path d="M0 0 C10.30794337 0.04540944 19.42915374 3.5570223 29 7 C29.17750721 12.25125496 28.49050798 15.95061855 25 20 C19.9698538 23.79486693 15.17336889 24.79656373 9 24 C4.67479495 21.75422045 1.4737932 19.21461064 -1 15 C-2.26367856 9.41029774 -2.42560088 5.26487013 0 0 Z " fill="#00D4BD" transform="translate(404,2)"/>
<path d="M0 0 C3.2454582 2.74060915 4.53505215 4.31722449 5.8125 8.375 C6.17619379 12.75358802 5.95184517 16.57341046 3.5625 20.3515625 C0.83760708 23.11575676 -1.21351596 24.25472278 -5.09765625 24.734375 C-7.82324155 24.74844254 -10.47586715 24.63978874 -13.1875 24.375 C-13.1875 23.715 -13.1875 23.055 -13.1875 22.375 C-14.0846875 22.2821875 -14.0846875 22.2821875 -15 22.1875 C-17.1875 21.375 -17.1875 21.375 -18.9375 19.4375 C-20.73951034 15.02257466 -20.98450805 11.07433995 -20.1875 6.375 C-18.42027466 2.68195218 -15.96446444 0.73868548 -12.25 -1 C-7.3796609 -1.99394676 -4.52132783 -2.30499066 0 0 Z " fill="#00D4BD" transform="translate(301.1875,169.625)"/>
<path d="M0 0 C3.70324783 2.11614162 5.37840939 4.12775347 7 8 C7.63529958 12.05254261 7.90563196 16.1662824 6.0546875 19.9140625 C2.66957753 24.23593246 -0.65407317 25.70051998 -5.9375 26.375 C-10.56943602 25.80782416 -13.53577317 23.60682374 -16.64453125 20.1953125 C-19.15650456 16.12692922 -18.73169056 11.60299878 -18 7 C-14.0016166 -0.64135494 -7.83405213 -0.82642457 0 0 Z " fill="#00D3BD" transform="translate(437,55)"/>
<path d="M0 0 C4.3604287 2.22135047 7.20212362 4.40542702 9 9 C9.62191504 13.12536976 9.94791655 17.09246422 8.05078125 20.91015625 C5.52756964 24.14973708 3.00167666 26.18147523 -1 27 C-4.80566664 26.86762899 -8.56233135 26.71883433 -12 25 C-12.86335143 22.40994572 -13.58960673 19.89157308 -14.25 17.25 C-14.44851562 16.53328125 -14.64703125 15.8165625 -14.8515625 15.078125 C-15.67999037 11.81243833 -16.10671846 9.42171003 -15.2734375 6.12890625 C-11.81988663 0.35533195 -6.28311238 -1.24157311 0 0 Z " fill="#00D3BD" transform="translate(17,397)"/>
<path d="M0 0 C4.11639609 1.77753468 6.76553623 4.11037788 9 8 C9.74656529 12.13375967 9.98157746 16.10280089 8.01171875 19.91015625 C5.79117485 22.70817906 3.43805757 24.9888066 0 26 C-4.2237944 26.46931049 -6.45327135 26.28387834 -10.25 24.3125 C-13.66751786 21.43867816 -15.68572901 19.39631627 -16.28125 14.85546875 C-16.46984523 10.11701368 -16.18695321 6.7364279 -13 3 C-8.94541622 -0.35951227 -5.0659497 -0.75165514 0 0 Z " fill="#00D3BC" transform="translate(74,215)"/>
<path d="M0 0 C3.96930989 -0.02465881 7.93859034 -0.04284023 11.90795898 -0.05493164 C13.25920386 -0.05997057 14.61044326 -0.06680177 15.96166992 -0.07543945 C17.90020434 -0.08752419 19.838778 -0.09269828 21.77734375 -0.09765625 C23.52905884 -0.10551147 23.52905884 -0.10551147 25.31616211 -0.11352539 C28 0 28 0 29 1 C29.5704829 5.96600692 29.53352702 9.9131857 27.3125 14.4375 C24.26523745 17.81419634 21.66256029 19.70780616 17.1328125 20.50390625 C8.00620196 20.68169736 8.00620196 20.68169736 3.875 17.375 C0.19882813 13.56466127 -0.88451292 10.00177604 -1.1875 4.75 C-1 2 -1 2 0 0 Z " fill="#00D4BD" transform="translate(361,0)"/>
<path d="M0 0 C3.87211388 2.35145613 6.55582679 4.66748036 8 9 C8.13973952 12.84283684 8.17851619 16.3171369 7 20 C6.34 20 5.68 20 5 20 C5 20.66 5 21.32 5 22 C4.34 22 3.68 22 3 22 C3 22.66 3 23.32 3 24 C-1.35449535 25.45149845 -5.45381926 25.6423951 -10 25 C-13.62433515 23.12259439 -15.69081123 20.92756632 -17 17 C-17.60769955 11.87796092 -17.92072493 8.22763324 -14.75 4 C-9.98841537 0.53702936 -6.0575745 -1.31735356 0 0 Z " fill="#00D4BD" transform="translate(113,398)"/>
<path d="M0 0 C3.8076546 2.01159111 7.04834016 4.09668033 9 8 C9.54192749 12.79992915 9.51086458 14.99719176 7.3125 19.3125 C3.76910583 23.43049863 1.5385347 24.77666432 -3.875 25.5625 C-8.25412802 25.42123781 -10.55166064 23.43191913 -13.65234375 20.5078125 C-16.25958686 17.59072311 -16.33412763 14.95240318 -16.28515625 11.09765625 C-15.7081744 6.85328289 -13.07101398 4.14751498 -10.25 1.125 C-6.85855398 -0.57072301 -3.66268278 -0.64220449 0 0 Z " fill="#00D4BD" transform="translate(170,408)"/>
<path d="M0 0 C4.19742636 3.28987472 6.12352008 5.32428316 6.8125 10.75 C6.59671111 14.97786373 5.02829568 17.55354519 2.3125 20.8125 C-1.8980901 23.61956007 -4.87597639 22.69503696 -9.6875 21.8125 C-14.15328858 20.62162305 -16.30008228 18.79152953 -18.6875 14.8125 C-19.431991 10.34555397 -18.91383668 7.68767165 -16.4375 4 C-12.03445874 -1.48535308 -6.73322408 -2.97514552 0 0 Z " fill="#00D4BD" transform="translate(251.6875,336.1875)"/>
<path d="M0 0 C3.25490183 3.25490183 4.25954613 6.00870882 4.5625 10.5 C4.35269854 15.4680985 2.5408838 17.62772972 -1 21 C-4.70755086 22.85377543 -8.95322657 22.45247388 -13 22 C-16.48988844 20.10964376 -17.6430902 18.73004278 -19.375 15.1875 C-20.35680284 10.1803055 -19.95123113 6.58538522 -17.3125 2.1875 C-12.07115463 -2.7705294 -6.40183982 -2.73323332 0 0 Z " fill="#00D4BD" transform="translate(424,104)"/>
<path d="M0 0 C9.36842105 0 9.36842105 0 14 4 C17.93713353 8.35156863 18.62990978 11.91464278 18.390625 17.59765625 C17.65316147 22.13305694 15.2983704 24.85900783 11.9375 27.8125 C7.66075095 30.43373329 5.41538355 30 0 30 C0 20.1 0 10.2 0 0 Z " fill="#00D4BD" transform="translate(0,234)"/>
<path d="M0 0 C3.1171875 0.1015625 3.1171875 0.1015625 6.875 0.625 C8.72738281 0.86089844 8.72738281 0.86089844 10.6171875 1.1015625 C14.34385569 2.09132426 15.77820097 2.87850951 18 6 C18.91868949 10.44877192 18.4915096 14.71661383 16.875 18.9375 C14.39970054 21.6603294 12.4987001 22.81176223 9 24 C4.1698771 24 1.33216499 23.60896787 -2.4375 20.5625 C-5.64626642 17.35373358 -5.93332418 16.80010978 -6.3125 12.25 C-6.26400872 6.91595889 -3.68884944 3.68884944 0 0 Z " fill="#00D4BD" transform="translate(403,173)"/>
<path d="M0 0 C16.8929385 4.03872437 16.8929385 4.03872437 24 7 C23.0394456 13.45148479 21.64670631 17.35329369 17 22 C13.5259169 23.73704155 9.79843331 23.46041616 6 23 C1.61226825 20.80613412 -1.09334197 18.55479418 -3 14 C-3.57638586 8.71646296 -2.61475235 5.57581661 0 1 C0 0.67 0 0.34 0 0 Z " fill="#00D4BD" transform="translate(341,224)"/>
<path d="M0 0 C3.18500291 1.62145603 5.22111096 2.97328264 7.375 5.8125 C8.31707395 9.10975883 8.41260656 11.5812599 8 15 C5.91673756 18.64363431 3.08367311 21.7625233 -1 23 C-4.82034235 23.49830552 -6.70403054 23.14508307 -10.1875 21.4375 C-13.67460751 18.41534015 -14.89527173 16.49256162 -16 12 C-15.36850953 7.783047 -14.01566918 4.28911857 -11.375 0.9375 C-7.5711509 -0.56401938 -4.02318136 -0.63450521 0 0 Z " fill="#00D4BD" transform="translate(480,233)"/>
<path d="M0 0 C3.82504363 3.04264834 3.82504363 3.04264834 4.75 6.1875 C4.77493572 8.18734455 4.77724543 10.18768559 4.75 12.1875 C-9.10135135 19.52871622 -9.10135135 19.52871622 -15.25 20.1875 C-17.6875 18.875 -17.6875 18.875 -19.25 16.1875 C-20.58859174 11.63803788 -20.87990463 7.63657363 -18.75 3.3125 C-13.98102834 -3.75873383 -6.88242574 -3.83827589 0 0 Z " fill="#00D4BD" transform="translate(438.25,485.8125)"/>
<path d="M0 0 C2.45050877 3.9356656 2.79459198 5.75726103 2.0625 10.3125 C0.03583762 14.01640021 -1.41794516 15.96613011 -4.9375 18.3125 C-10.92254314 18.86667066 -13.93483003 17.68687407 -18.54296875 14.04296875 C-20.99242987 11.00344136 -20.52020906 7.74160773 -20.42578125 3.984375 C-19.89456781 1.07757503 -19.39496461 0.08759612 -17.1875 -1.8125 C-10.6448784 -5.58708939 -5.89508649 -5.393377 0 0 Z " fill="#00D4BD" transform="translate(489.9375,118.6875)"/>
<path d="M0 0 C3.96872558 2.13700608 6.37317781 3.78259841 8 8 C8.32287392 12.62785955 7.54028319 16.14600399 5.0625 20.0625 C0.73221883 22.80206564 -3.00728237 23.04937251 -8 22 C-10.82424288 19.80977082 -12.41508603 18.16982793 -14 15 C-14.57791538 7.9494324 -14.57791538 7.9494324 -12.25 4.125 C-8.3110503 0.40488084 -5.47435346 -0.65692242 0 0 Z " fill="#00D3BC" transform="translate(72,286)"/>
<path d="M0 0 C3.34862121 2.96809608 4.5132719 5.145326 5.75 9.4375 C5.75 14.04182449 5.29073636 15.81565319 2.25 19.3125 C1.425 20.01375 0.6 20.715 -0.25 21.4375 C-0.58 21.7675 -0.91 22.0975 -1.25 22.4375 C-5.25220653 22.58105117 -9.24441683 22.47966403 -13.25 22.4375 C-13.25 14.8475 -13.25 7.2575 -13.25 -0.5625 C-8.35000043 -2.19583319 -4.69532932 -2.25736987 0 0 Z " fill="#00D3BC" transform="translate(13.25,185.5625)"/>
<path d="M0 0 C3.05992005 1.61656154 5.24119476 3.0762371 7.4375 5.75 C8.32768509 9.31074036 8.05246315 12.53306255 7 16 C4.41785313 19.56943833 2.79452105 20.7688666 -1.4375 22 C-5.58956112 22 -7.58093877 21.33117811 -11 19 C-13.79611547 15.93329272 -14.23639043 13.52623218 -14.0625 9.5 C-13.54863168 6.19024597 -12.828157 4.24596677 -10.375 1.9375 C-6.40696936 -0.34044352 -4.50188515 -0.72351726 0 0 Z " fill="#00D3BC" transform="translate(56,49)"/>
<path d="M0 0 C2.9375 2.4375 2.9375 2.4375 5 5 C5.33 5.33 5.66 5.66 6 6 C6.55720584 9.78103961 6.84003776 13.47978241 4.953125 16.89453125 C2.05962574 20.39226124 0.23780017 21.8571769 -4.25 22.375 C-9.19272958 21.88072704 -10.53828301 20.46171699 -14 17 C-15.61429923 13.77140153 -15.59570657 10.49006347 -15 7 C-11.49055427 0.88465986 -6.95287708 -1.23873097 0 0 Z " fill="#00D4BD" transform="translate(360,301)"/>
<path d="M0 0 C3.52918496 2.55302742 4.75520504 4.222416 6.0625 8.375 C5.97904387 13.2154558 4.83529906 15.09188508 2 19 C-1.14815213 21.4135833 -4.11852805 21.46577663 -8 21 C-11.06471302 19.34976991 -13.30778907 17.943924 -15.375 15.125 C-16.69601084 10.63356315 -16.48383625 7.89855304 -14.25 3.75 C-10.10221658 -1.31951307 -6.31818583 -1.9180207 0 0 Z " fill="#00D2BC" transform="translate(60,99)"/>
<path d="M0 0 C2.70567626 1.82339052 4.53728718 3.07457436 6 6 C6.57791538 13.0505676 6.57791538 13.0505676 4.25 16.875 C0.69879518 20.22891566 0.69879518 20.22891566 -2 21 C-7.29565084 20.80743088 -10.19770181 19.69046589 -14 16 C-15.5547669 12.89046621 -15.28644437 10.43733239 -15 7 C-13.36861406 3.91201947 -11.92494088 1.7335738 -9.1875 -0.4375 C-5.82536233 -1.30204969 -3.35188798 -0.82327073 0 0 Z " fill="#00D3BC" transform="translate(110,40)"/>
<path d="M0 0 C2.86624771 2.44825325 4.61349969 4.24877735 5.44140625 8 C5.65821147 11.69268247 5.10798801 13.83081878 3.125 16.9375 C-0.36237986 20.32230986 -3.03586938 20.38599822 -7.73828125 20.36328125 C-11.29566317 19.7918883 -12.85459738 17.7487971 -15 15 C-15.33 14.67 -15.66 14.34 -16 14 C-16.58638743 6.96335079 -16.58638743 6.96335079 -14.25 3.125 C-9.79841134 -1.07927817 -5.99432356 -2.00602115 0 0 Z " fill="#00D3BC" transform="translate(81,342)"/>
<path d="M0 0 C3.5386994 1.65139305 4.81070153 2.71605229 7 6 C7.76579737 12.67337705 7.76579737 12.67337705 5.94921875 15.8203125 C3.26831101 19.09434143 1.46432196 20.83359978 -2.75 21.3125 C-6.83266269 20.91993628 -8.81816032 19.53100884 -12 17 C-14.5941532 13.1087702 -14.23091604 10.90177312 -13.6640625 6.38671875 C-13 4 -13 4 -10.375 1.375 C-6.52579392 -0.19319507 -4.11823327 -0.52413878 0 0 Z " fill="#00D4BD" transform="translate(312,465)"/>
<path d="M0 0 C3.87165002 1.40204973 5.06973113 3.18938548 7.125 6.76953125 C7.744038 10.23614406 7.93472674 12.44181755 6.0625 15.51171875 C2.9652963 19.36478764 1.24672244 20.61996826 -3.625 21.26953125 C-7.21539079 21.21045718 -8.91680393 20.38814693 -11.4375 17.83203125 C-13.61243358 14.89438124 -14.29021295 12.79757312 -14.125 9.14453125 C-13.50186503 6.00736897 -12.63255445 3.92745148 -10.375 1.64453125 C-6.41316631 -0.47787966 -4.34590636 -0.78549321 0 0 Z " fill="#00D4BD" transform="translate(431.875,301.23046875)"/>
<path d="M0 0 C3.32542727 0.13666139 5.60318227 0.86724819 8.5 2.5 C8.5 3.16 8.5 3.82 8.5 4.5 C9.16 4.5 9.82 4.5 10.5 4.5 C12.10729993 7.71459986 12.11930855 11.02388103 11.5 14.5 C9.0625 17.4375 9.0625 17.4375 6.5 19.5 C6.17 19.83 5.84 20.16 5.5 20.5 C2.56771337 20.79322866 0.35508117 21.00004247 -2.5 20.5 C-5.4375 18.0625 -5.4375 18.0625 -7.5 15.5 C-7.83 15.17 -8.16 14.84 -8.5 14.5 C-8.88938396 9.90526932 -8.82455588 7.29022302 -7.0625 3 C-4.24462522 0.25085387 -3.73104075 0.09834704 0 0 Z " fill="#00D2BC" transform="translate(238.5,-0.5)"/>
<path d="M0 0 C3.03624599 4.42424416 4.83704767 7.49940105 4 13 C2.73896101 15.77428577 1.68910086 17.48317435 -0.75 19.3125 C-3.86856585 20.26539512 -6.76234825 20.12452507 -10 20 C-10 19.34 -10 18.68 -10 18 C-10.928125 17.9071875 -10.928125 17.9071875 -11.875 17.8125 C-14 17 -14 17 -15.3125 14.875 C-16.19482845 11.18526284 -15.93468287 8.6719684 -15 5 C-12.79998043 1.74397104 -10.61221061 0.71425738 -6.9375 -0.3125 C-3 -1 -3 -1 0 0 Z " fill="#00D3BC" transform="translate(363,158)"/>
<path d="M0 0 C3.64051176 0.81120099 5.09653944 2.45526886 7.15625 5.48046875 C8.28234115 9.42178777 8.57072672 11.49881337 6.96875 15.29296875 C3.90187797 18.99436603 2.01669001 19.37120653 -2.78125 19.98046875 C-6.37839121 19.8728907 -6.85925997 19.46754378 -9.84375 16.98046875 C-12.56348922 13.06737456 -12.58319481 10.13897106 -11.84375 5.48046875 C-8.69025092 0.59763146 -5.54911362 -0.34219534 0 0 Z " fill="#00D3BC" transform="translate(137.84375,168.51953125)"/>
<path d="M0 0 C1.21142356 4.96683659 0.94693111 8.25964599 -1 13 C-3.63492177 16.35764317 -5.91897287 18.63965762 -10 20 C-16.11769697 20.46171298 -20.0740731 19.34074152 -24.875 15.5 C-26 14 -26 14 -26 11 C-23.14618611 9.72837344 -20.29188429 8.45784562 -17.4375 7.1875 C-16.63763672 6.83107422 -15.83777344 6.47464844 -15.01367188 6.10742188 C-1.2859805 0 -1.2859805 0 0 0 Z " fill="#01D5BE" transform="translate(315,229)"/>
<path d="M0 0 C2.8100346 1.79363911 4.50940468 3.01880935 6 6 C6.39447548 10.18144011 6.45035186 12.30946048 4.125 15.875 C1.19961143 18.80038857 0.42659437 18.96503325 -3.8125 19.3125 C-6.92064005 19.25598836 -8.08429001 18.95516489 -10.9375 17.4375 C-13.66845273 14.21001041 -14 12.20705309 -14 8 C-11.33959202 0.94991885 -7.4474192 -1.21946045 0 0 Z " fill="#00D3BC" transform="translate(61,165)"/>
<path d="M0 0 C3.56719805 3.01230057 5.79134449 5.12210039 6.3125 9.8125 C5.92147661 13.80093862 4.84914102 15.22786279 2 18 C-0.9386799 19.70134099 -2.66100699 20.00691822 -6.0625 19.9375 C-9.94235479 18.69924847 -11.05899889 17.58338666 -13 14 C-13.54252716 10.89430879 -13.58547507 8.10127882 -13 5 C-9.61947074 0.33720102 -5.60879972 -0.67305597 0 0 Z " fill="#00D3BC" transform="translate(194,304)"/>
<path d="M0 0 C3.4375 2 3.4375 2 6 5 C6.74640732 7.82609184 6.68717509 10.16540277 6 13 C4.20636089 15.8100346 2.98119065 17.50940468 0 19 C-4.63554388 19.41204834 -7.30416098 18.87454146 -11 16 C-13.32402951 12.79062591 -13.47570691 9.88493979 -13 6 C-9.27164865 0.40747298 -6.71012047 -0.67101205 0 0 Z " fill="#00D4BD" transform="translate(128,471)"/>
<path d="M0 0 C7.34686463 1.21119677 14.07189348 3.28671113 21 6 C20.20302666 9.76751033 19.46192169 12.43703294 17 15.4375 C12.6446502 17.70591136 8.80276288 18.01566625 4 17 C0.55911423 14.3161091 -0.72606095 12.94692396 -1.328125 8.66796875 C-1.44031882 2.88063764 -1.44031882 2.88063764 0 0 Z " fill="#00D4BD" transform="translate(182,225)"/>
<path d="M0 0 C2.96975757 2.59853787 3.86883492 4.10058229 4.4375 8 C3.94702329 11.36326885 3.01736344 13.28431844 1 16 C-2.22938367 17.61469184 -5.50856753 17.58079278 -9 17 C-12 14.9375 -12 14.9375 -14 12 C-14.69151325 7.69725091 -14.51557405 5.79054688 -12.125 2.125 C-8.36349511 -1.63650489 -4.95891732 -1.42103362 0 0 Z " fill="#00D4BD" transform="translate(361,489)"/>
<path d="M0 0 C6 0 6 0 8.75 1.75 C12.26632087 5.26632087 12.91300055 6.90380698 13.3125 11.9375 C13.19273318 15.72776772 12.52723485 18.05155934 10 21 C6.27033452 23.30128295 4.43338303 24 0 24 C0 16.08 0 8.16 0 0 Z " fill="#00D3BD" transform="translate(0,363)"/>
<path d="M0 0 C2.92539902 1.99176104 4.58729794 3.44924075 5.515625 6.9375 C5.87181493 11.21177914 5.26664901 12.68132191 2.4375 16.0625 C-1 18 -1 18 -4.5625 18.1875 C-9.17180351 16.59519515 -10.39580524 15.10357962 -13 11 C-13.5625 8.4375 -13.5625 8.4375 -13 6 C-9.21465903 0.44816658 -6.74251967 -0.68567997 0 0 Z " fill="#00D4BD" transform="translate(243,469)"/>
<path d="M0 0 C3.34638613 2.49198967 4.78809054 3.86981619 5.5625 8 C4.8491179 11.80470451 3.88381579 13.41196019 1 16 C-2.94929279 17.14888518 -5.02958859 17.43129396 -8.8125 15.75 C-11.69234659 13.44612273 -12.89454529 11.80848609 -13.375 8.125 C-12.91377729 4.28147742 -11.66559892 2.74399889 -9 0 C-5.77509551 -1.61245225 -3.43772273 -0.81573082 0 0 Z " fill="#00D4BD" transform="translate(181,470)"/>
<path d="M0 0 C0.5290082 5.42233402 -0.77464687 8.770729 -4 13 C-7.8517589 16.61831897 -12.20092577 16.54707062 -17.26171875 16.4375 C-21.55812191 15.75105613 -23.78375043 13.85888851 -27 11 C-23.70354134 8.8023609 -20.26854054 7.16349599 -16.6875 5.5 C-16.03587891 5.19191406 -15.38425781 4.88382812 -14.71289062 4.56640625 C-4.92353474 0 -4.92353474 0 0 0 Z " fill="#04D5BE" transform="translate(326,370)"/>
<path d="M0 0 C2.65041483 2.12033186 3.7168575 3.63821941 4.41015625 6.97265625 C4.67780763 10.64428417 4.30155582 12.62305523 2 15.5 C-2.17703144 17.58851572 -4.34933529 17.66438067 -9 17 C-12.24985922 14.31886615 -12.89575014 12.64866582 -13.5625 8.5 C-13 5 -13 5 -11 2.0625 C-6.83082591 -0.80380719 -4.98902441 -0.79190864 0 0 Z " fill="#00D3BC" transform="translate(259,122)"/>
<path d="M0 0 C2.93602134 1.99899325 4.62130844 3.44520943 5.48046875 6.97265625 C5.73661074 10.67633097 5.29738696 12.63953096 2.9375 15.5 C-0.74788284 17.38189762 -2.90846373 17.58450518 -7 17 C-9.9375 15.5 -9.9375 15.5 -12 13 C-12.79190864 8.01097559 -12.80380719 6.16917409 -9.9375 2 C-6.22192774 -0.52975133 -4.4117517 -0.7878128 0 0 Z " fill="#00D4BD" transform="translate(497,420)"/>
<path d="M0 0 C0.56203125 0.13277344 1.1240625 0.26554688 1.703125 0.40234375 C11.37822032 2.4353009 21.15153001 2.63345557 31 3 C31 3.33 31 3.66 31 4 C28.36 4 25.72 4 23 4 C22.9175 4.7425 22.835 5.485 22.75 6.25 C21.84562401 9.56604529 20.6285474 10.83531391 18 13 C14.28512845 14.23829052 10.86021488 14.5503822 7 14 C3.5568854 11.90419111 1.2531782 9.8734599 0 6 C-0.125 2.75 -0.125 2.75 0 0 Z " fill="#09D4BE" transform="translate(231,171)"/>
<path d="M0 0 C3.76991795 0.70685962 5.40418092 1.74418215 8 4.5625 C9.24721924 8.22620652 9.36297705 9.80197666 7.6875 13.3125 C6 15.5625 6 15.5625 4 17.5625 C-0.34125236 18.13587295 -2.31361351 18.04443094 -5.9375 15.5 C-8 12.5625 -8 12.5625 -8.625 9.0625 C-7.67703424 3.75389177 -5.38444917 1.00958422 0 0 Z " fill="#00D4BD" transform="translate(492,362.4375)"/>
<path d="M0 0 C4.875 3.75 4.875 3.75 6 6 C6.1346515 10.8955438 5.69296109 14.14712481 2.5625 18 C-1.48031764 21.15536987 -3.83882964 21.51611704 -9 21 C-12.375 18.9375 -12.375 18.9375 -15 16 C-15.33 13.69 -15.66 11.38 -16 9 C-10.72 9.66 -5.44 10.32 0 11 C0 7.37 0 3.74 0 0 Z " fill="#01D4BD" transform="translate(418,236)"/>
<path d="M0 0 C4.4297642 0.79102932 5.89210172 1.98974785 8.5 5.625 C9.125 8.625 9.125 8.625 8.5 11.625 C6.50366611 14.49472996 5.02770117 16.27710765 1.52734375 17.07421875 C-1.85687031 17.25766213 -4.12776779 16.85764513 -7 15.0625 C-9.11006839 11.63363886 -9.12491523 9.58279649 -8.5 5.625 C-5.90783917 1.93313458 -4.45850936 0.79616239 0 0 Z " fill="#00D2BC" transform="translate(294.5,4.375)"/>
<path d="M0 0 C8 0 8 0 10.9375 2.125 C13.23581926 5.32871776 14 7.06622284 14 11 C12.40812216 14.60267091 10.55397912 17.22301044 7 19 C4.69 18.67 2.38 18.34 0 18 C0 12.06 0 6.12 0 0 Z " fill="#00D3BC" transform="translate(0,115)"/>
<path d="M0 0 C0.06170473 3.96673237 -0.05502864 7.52441381 -2.23828125 10.93359375 C-5.71606525 14.39477735 -8.74114014 15.4367072 -13.625 15.6875 C-17.68006269 15.46996569 -18.81602051 15.13708276 -22.1875 12.625 C-24 10 -24 10 -24 8 C-24.66 7.67 -25.32 7.34 -26 7 C-24.2984375 6.61908203 -24.2984375 6.61908203 -22.5625 6.23046875 C-21.04160034 5.88310278 -19.52077071 5.53543007 -18 5.1875 C-17.25621094 5.02185547 -16.51242188 4.85621094 -15.74609375 4.68554688 C-10.98324806 3.58802156 -4.66057911 0 0 0 Z " fill="#04D4BD" transform="translate(133,238)"/>
<path d="M0 0 C4.15526322 0.65609419 5.84398463 1.34970911 8.5625 4.5625 C9.23746305 8.68727419 8.96376114 10.80812906 7 14.5 C4.5625 16.5625 4.5625 16.5625 1.125 17.125 C-3.03026322 16.46890581 -4.71898463 15.77529089 -7.4375 12.5625 C-8.11246305 8.43772581 -7.83876114 6.31687094 -5.875 2.625 C-3.4375 0.5625 -3.4375 0.5625 0 0 Z " fill="#00D4BD" transform="translate(354.4375,409.4375)"/>
<path d="M0 0 C0.41463038 3.38614807 0.63042581 5.96989247 -1.1953125 8.953125 C-4.98369862 13.48395865 -7.81413011 15.74916247 -13.8125 16.4375 C-18.72063577 16.35462341 -21.31506279 14.07078101 -25 11 C-21.54742009 8.69828006 -17.9193989 7.13398439 -14.125 5.5 C-13.06345703 5.03787109 -13.06345703 5.03787109 -11.98046875 4.56640625 C-1.45617623 0 -1.45617623 0 0 0 Z " fill="#03D5BE" transform="translate(311,303)"/>
<path d="M0 0 C9.70074425 -0.65767758 18.10416023 2.34282143 27 6 C21.79627651 10.24514285 19.20729686 11.36381941 12.5390625 11.27734375 C8.77539598 10.86623556 6.78209813 9.5171364 4 7 C0 1.63157895 0 1.63157895 0 0 Z " fill="#03D5BE" transform="translate(175,369)"/>
<path d="M0 0 C6.93 0 13.86 0 21 0 C19.0123675 4.96908126 18.4352009 6.39672991 14 9 C9.7212896 9.85747435 6.8553053 9.4913456 3.0625 7.3125 C1 5 1 5 0 0 Z " fill="#00D3BC" transform="translate(173,0)"/>
<path d="M0 0 C4.08252169 0.70157901 7.57584998 2.34314117 10.38671875 5.41015625 C11.04671875 7.72015625 11.70671875 10.03015625 12.38671875 12.41015625 C4.79671875 9.44015625 -2.79328125 6.47015625 -10.61328125 3.41015625 C-6.29928406 0.17465836 -5.05612386 -0.19221628 0 0 Z " fill="#06D5BE" transform="translate(374.61328125,338.58984375)"/>
<path d="M0 0 C5 2 5 2 7 5 C7.54607179 8.3913932 7.54546798 11.60837729 7 15 C4.625 18.125 4.625 18.125 2 20 C1.34 20 0.68 20 0 20 C0 13.4 0 6.8 0 0 Z " fill="#00D3BC" transform="translate(0,297)"/>
<path d="M0 0 C-5.32467532 6.99814471 -5.32467532 6.99814471 -10 8 C-14.58839706 7.91806434 -16.44350835 7.48545016 -19.9375 4.4375 C-20.618125 3.633125 -21.29875 2.82875 -22 2 C-14.58856436 0.57374434 -7.55137932 -0.30071865 0 0 Z " fill="#00D1BB" transform="translate(124,0)"/>
<path d="M0 0 C0.33 0 0.66 0 1 0 C1.41859743 6.06966268 1.14344799 9.20232338 -3 14 C-4.93912256 15.52292064 -6.86824405 16.74032603 -9 18 C-9.33 17.34 -9.66 16.68 -10 16 C-8.80219162 13.58663793 -7.55896094 11.31129458 -6.1875 9 C-5.81818359 8.35804687 -5.44886719 7.71609375 -5.06835938 7.0546875 C-3.54642782 4.44253926 -2.14632879 2.14632879 0 0 Z " fill="#00D1BB" transform="translate(22,56)"/>
<path d="M0 0 C0.99 0.99 1.98 1.98 3 3 C-2.94 4.65 -8.88 6.3 -15 8 C-11.69715419 1.39430837 -7.37118262 -0.97355242 0 0 Z " fill="#02D2BB" transform="translate(317,120)"/>
<path d="M0 0 C1.59134766 -0.02126953 1.59134766 -0.02126953 3.21484375 -0.04296875 C6.0625 0.1875 6.0625 0.1875 9.0625 2.1875 C9.0625 2.8475 9.0625 3.5075 9.0625 4.1875 C3.4525 3.8575 -2.1575 3.5275 -7.9375 3.1875 C-7.9375 2.5275 -7.9375 1.8675 -7.9375 1.1875 C-5.2264923 -0.16800385 -3.02410831 0.01832793 0 0 Z " fill="#04D2BC" transform="translate(178.9375,117.8125)"/>
<path d="M0 0 C-3.1254959 2.64465038 -6.08788267 3.84414715 -10 5 C-7.62417533 -0.26075462 -5.61350876 -0.1220328 0 0 Z " fill="#07D3BE" transform="translate(126,350)"/>
</svg>
